<?xml version="1.0" encoding="UTF-8"?>
<svg id="Layer_1" xmlns="http://www.w3.org/2000/svg" version="1.1" viewBox="0 0 62.3 80.6">
  <!-- Generator: Adobe Illustrator 29.3.1, SVG Export Plug-In . SVG Version: 2.1.0 Build 151)  -->
  <defs>
    <style>
      .st0 {
        fill: #da5973;
      }

      .st1 {
        fill: #fff;
      }
    </style>
  </defs>
  <path class="st0" d="M31.2,11.6c-11.5,0-20.9,9.4-20.9,20.9,0,19.8,20.9,36.6,20.9,36.6,0,0,20.9-16.8,20.9-36.6s-9.4-20.9-20.9-20.9Z"/>
  <path class="st1" d="M22.2,40.3c0-4.9,3.7-8.5,8.9-8.5s8.9,3.5,8.9,8.5-3.8,8.5-8.9,8.5-8.9-3.6-8.9-8.5ZM34.6,40.3c0-2.1-1.4-3.6-3.4-3.6s-3.4,1.4-3.4,3.6,1.4,3.6,3.4,3.6,3.4-1.4,3.4-3.6ZM22.2,29l8.9-2.1,9,2.1v-4.1l-9-2.1-8.9,2.1v4.1Z"/>
</svg>