<?xml version="1.0" encoding="UTF-8"?>
<svg id="Layer_1" xmlns="http://www.w3.org/2000/svg" xmlns:xlink="http://www.w3.org/1999/xlink" version="1.1" viewBox="0 0 99.8 34.7">
  <!-- Generator: Adobe Illustrator 29.3.1, SVG Export Plug-In . SVG Version: 2.1.0 Build 151)  -->
  <defs>
    <style>
      .st0 {
        fill: #da5973;
      }
    </style>
  </defs>
  <g>
    <path class="st0" d="M18.9,16.5v15.9h-4.2l-.5-1.1c-1.3,1.1-3,1.7-4.8,1.7-4.9,0-8.4-3.6-8.4-8.5s3.5-8.4,8.4-8.4,3.6.6,4.9,1.7l.6-1.2h4.1ZM13.6,24.5c0-2.1-1.5-3.6-3.6-3.6s-3.6,1.6-3.6,3.6,1.5,3.6,3.6,3.6,3.6-1.6,3.6-3.6Z"/>
    <path class="st0" d="M40.1,24.5c0,5-3.5,8.5-8.4,8.5s-3.5-.6-4.8-1.7l-.5,1.2h-4.1V8.3l5.4-1.2v10.1c1.1-.7,2.5-1.1,4-1.1,4.9,0,8.4,3.5,8.4,8.5ZM34.6,24.5c0-2.1-1.5-3.6-3.6-3.6s-3.6,1.6-3.6,3.6,1.5,3.6,3.6,3.6,3.6-1.6,3.6-3.6Z"/>
    <path class="st0" d="M41.7,24.5c0-4.9,3.7-8.5,8.9-8.5s8.9,3.5,8.9,8.5-3.8,8.5-8.9,8.5-8.9-3.6-8.9-8.5ZM54.1,24.5c0-2.1-1.4-3.6-3.4-3.6s-3.4,1.4-3.4,3.6,1.4,3.6,3.4,3.6,3.4-1.4,3.4-3.6Z"/>
    <path class="st0" d="M78.9,8.3v24.1h-4.1l-.5-1.2c-1.3,1.1-2.9,1.7-4.8,1.7-4.9,0-8.4-3.6-8.4-8.5s3.5-8.5,8.4-8.5,2.8.4,4,1.1V7.1l5.4,1.2ZM73.8,24.5c0-2.1-1.5-3.6-3.6-3.6s-3.6,1.6-3.6,3.6,1.5,3.6,3.6,3.6,3.6-1.6,3.6-3.6Z"/>
    <path class="st0" d="M98.7,25.8h-11.8c.4,1.8,1.5,2.8,3.3,2.8s2.4-.6,2.9-1.5h5.5c-1.1,3.6-4.3,5.9-8.3,5.9s-8.7-3.6-8.7-8.5,3.7-8.5,8.7-8.5,8.7,3.7,8.7,8.3,0,1-.1,1.5ZM87,22.8h6.4c-.5-1.6-1.6-2.5-3.3-2.5s-2.7.9-3.2,2.5Z"/>
  </g>
  <polygon class="st0" points="41.7 7.9 50.6 5.8 59.6 7.9 59.6 3.8 50.6 1.7 41.7 3.8 41.7 7.9"/>
</svg>