<?xml version="1.0" encoding="UTF-8"?>
<svg id="Layer_1" xmlns="http://www.w3.org/2000/svg" version="1.1" viewBox="0 0 99.8 34.7">
  <!-- Generator: Adobe Illustrator 29.3.1, SVG Export Plug-In . SVG Version: 2.1.0 Build 151)  -->
  <defs>
    <style>
      .st0 {
        fill: #fff;
      }
    </style>
  </defs>
  <path class="st0" d="M79,8.3h0v24.2h-4.1l-.5-1.2c-1.3,1.1-3,1.7-4.8,1.7-4.9,0-8.4-3.6-8.4-8.5s3.5-8.5,8.4-8.5,2.8.4,4,1.1V7l5.5,1.2h0ZM90.1,16c5,0,8.7,3.7,8.7,8.3s0,1,0,1.4h-11.8c.3,1.8,1.5,2.8,3.3,2.8s2.4-.6,2.9-1.5h5.5c-1.1,3.6-4.4,5.9-8.4,5.9s-8.7-3.6-8.7-8.5,3.7-8.5,8.7-8.5h0ZM27.7,17.1c1.1-.7,2.5-1.1,4-1.1,4.9,0,8.4,3.5,8.4,8.5h0c0,4.9-3.5,8.5-8.4,8.5s-3.5-.6-4.8-1.7l-.5,1.2h-4.1V8.3l5.5-1.2v10.1h0ZM50.6,16c5.2,0,8.9,3.5,8.9,8.5s-3.8,8.5-8.9,8.5-8.9-3.6-8.9-8.5,3.8-8.5,8.9-8.5ZM9.2,16c1.9,0,3.6.6,4.9,1.7l.6-1.2h4.1v16h-4.2l-.5-1.1c-1.3,1-3,1.7-4.8,1.7-4.9,0-8.4-3.6-8.4-8.5s3.5-8.5,8.4-8.5h-.1ZM70.3,20.9c-2.1,0-3.6,1.6-3.6,3.7s1.5,3.7,3.6,3.7,3.6-1.6,3.6-3.7-1.5-3.7-3.6-3.7ZM30.9,20.9c-2.1,0-3.6,1.6-3.6,3.6s1.5,3.6,3.6,3.6,3.6-1.6,3.6-3.6-1.5-3.6-3.6-3.6ZM10,20.9c-2.1,0-3.6,1.6-3.6,3.6s1.5,3.6,3.6,3.6,3.6-1.6,3.6-3.6-1.5-3.6-3.6-3.6ZM50.6,20.9c-2,0-3.4,1.4-3.4,3.6s1.4,3.6,3.4,3.6,3.4-1.4,3.4-3.6-1.4-3.6-3.4-3.6ZM90.2,20.3c-1.7,0-2.7.9-3.1,2.4h6.4c-.5-1.6-1.6-2.4-3.3-2.4ZM59.5,3.7v4.1l-8.9-2.1-8.9,2.1V3.7l8.9-2.1,8.9,2.1Z"/>
</svg>